<svg width="65" height="64" viewBox="0 0 65 64" fill="none" xmlns="http://www.w3.org/2000/svg">
<g clip-path="url(#clip0_385_223)">
<path d="M64.1877 49.5898C61.8597 50.1818 60.4197 49.6158 59.1277 47.6758L49.9397 34.9638L48.6117 33.2038L37.8817 47.7178C36.6557 49.4638 35.3697 50.2238 33.0817 49.6058L46.8217 31.1618L34.0297 14.5018C36.2297 14.0738 37.7497 14.2918 39.0997 16.2618L48.6297 29.1318L58.2297 16.3318C59.4597 14.5858 60.7817 13.9218 62.9897 14.5658L58.0297 21.1418L51.3097 29.8918C50.5097 30.8918 50.6197 31.5758 51.3557 32.5418L64.1877 49.5898ZM0.203744 30.8538L1.32774 25.3258C4.38774 14.3858 16.9277 9.83977 25.5757 16.5998C30.6297 20.5758 31.8857 26.1998 31.6357 32.4998H3.14774C2.71974 43.8398 10.8817 50.6838 21.2877 47.1918C24.9377 45.9658 27.0877 43.1078 28.1637 39.5318C28.7097 37.7398 29.6137 37.4598 31.2977 37.9718C30.4377 42.4438 28.4977 46.1798 24.3977 48.5178C18.2717 52.0178 9.52774 50.8858 4.92774 46.0218C2.18774 43.1998 1.05574 39.6238 0.547744 35.7998C0.467744 35.1678 0.307744 34.5658 0.187744 33.9598C0.198411 32.9251 0.203744 31.8904 0.203744 30.8558V30.8538ZM3.19974 30.0938H28.9437C28.7757 21.8938 23.6697 16.0698 16.6917 16.0198C9.03174 15.9598 3.53174 21.6458 3.19974 30.0938Z" fill="black"/>
</g>
<defs>
<clipPath id="clip0_385_223">
<rect width="64" height="64" fill="white" transform="translate(0.187744)"/>
</clipPath>
</defs>
</svg>
