<svg width="64" height="64" viewBox="0 0 64 64" fill="none" xmlns="http://www.w3.org/2000/svg">
<g clip-path="url(#clip0_385_193)">
<mask id="mask0_385_193" style="mask-type:alpha" maskUnits="userSpaceOnUse" x="0" y="0" width="64" height="64">
<path d="M32 64C49.6731 64 64 49.6731 64 32C64 14.3269 49.6731 0 32 0C14.3269 0 0 14.3269 0 32C0 49.6731 14.3269 64 32 64Z" fill="black"/>
</mask>
<g mask="url(#mask0_385_193)">
<path d="M32 62.9336C49.084 62.9336 62.9333 49.0842 62.9333 32.0002C62.9333 14.9162 49.084 1.06689 32 1.06689C14.916 1.06689 1.06665 14.9162 1.06665 32.0002C1.06665 49.0842 14.916 62.9336 32 62.9336Z" fill="black" stroke="white" stroke-width="6"/>
<path d="M53.1584 56.0073L24.5838 19.2002H19.2V44.7895H23.507V24.6699L49.7774 58.6118C50.9628 57.8185 52.092 56.9478 53.1584 56.0073Z" fill="url(#paint0_linear_385_193)"/>
<path d="M45.1556 19.2002H40.8889V44.8002H45.1556V19.2002Z" fill="url(#paint1_linear_385_193)"/>
</g>
</g>
<defs>
<linearGradient id="paint0_linear_385_193" x1="38.7555" y1="41.4224" x2="51.3777" y2="57.0669" gradientUnits="userSpaceOnUse">
<stop stop-color="white"/>
<stop offset="1" stop-color="white" stop-opacity="0"/>
</linearGradient>
<linearGradient id="paint1_linear_385_193" x1="43.0222" y1="19.2002" x2="42.9508" y2="38.0002" gradientUnits="userSpaceOnUse">
<stop stop-color="white"/>
<stop offset="1" stop-color="white" stop-opacity="0"/>
</linearGradient>
<clipPath id="clip0_385_193">
<rect width="64" height="64" fill="white"/>
</clipPath>
</defs>
</svg>
