<svg width="70" height="74" viewBox="0 0 70 74" fill="none" xmlns="http://www.w3.org/2000/svg">
<path d="M35.2468 52.1827C53.6084 52.1827 68.4935 45.3604 68.4935 36.9446C68.4935 28.5289 53.6084 21.7065 35.2468 21.7065C16.8851 21.7065 2 28.5289 2 36.9446C2 45.3604 16.8851 52.1827 35.2468 52.1827Z" stroke="#087EA4" stroke-width="3"/>
<path d="M22.2901 44.5638C31.4709 60.76 44.7143 70.4784 51.8701 66.2705C59.0258 62.0626 57.3842 45.5219 48.2033 29.3257C39.0225 13.1296 25.7791 3.41116 18.6233 7.61905C11.4676 11.8269 13.1092 28.3677 22.2901 44.5638Z" stroke="#087EA4" stroke-width="3"/>
<path d="M22.2901 29.3259C13.1093 45.5221 11.4676 62.0628 18.6234 66.2707C25.7791 70.4786 39.0226 60.7602 48.2034 44.564C57.3842 28.3679 59.0259 11.8271 51.8701 7.61923C44.7144 3.41135 31.471 13.1298 22.2901 29.3259Z" stroke="#087EA4" stroke-width="3"/>
</svg>
